<svg width="128" height="128" viewBox="0 0 128 128" fill="none" xmlns="http://www.w3.org/2000/svg">
  <rect width="128" height="128" rx="24" fill="#5E17EB"/>
  <path d="M64 32C48.536 32 36 44.536 36 60C36 75.464 48.536 88 64 88C79.464 88 92 75.464 92 60C92 44.536 79.464 32 64 32Z" fill="#FF3366"/>
  <path d="M64 40C52.954 40 44 48.954 44 60C44 71.046 52.954 80 64 80C75.046 80 84 71.046 84 60C84 48.954 75.046 40 64 40Z" fill="#0CA5B0"/>
  <path d="M64 48C57.373 48 52 53.373 52 60C52 66.627 57.373 72 64 72C70.627 72 76 66.627 76 60C76 53.373 70.627 48 64 48Z" fill="white"/>
  <path d="M86.154 96H80.308L72 104.308L63.692 96H41.846C40.275 96 39 97.275 39 98.846V115.154C39 116.725 40.275 118 41.846 118H86.154C87.725 118 89 116.725 89 115.154V98.846C89 97.275 87.725 96 86.154 96Z" fill="white"/>
</svg>